<svg xmlns="http://www.w3.org/2000/svg" width="24" height="24" fill="none" viewBox="0 0 24 24"><path fill="currentColor" d="m11.548 16.4 3.027.875a.5.5 0 0 1-.277.961l-3.027-.875a.5.5 0 0 1 .277-.96m-1.19-8.758c.2.014.448.055.715.11.539.113 1.213.297 1.864.489a67 67 0 0 1 2.35.74l.16.055.043.015 1.258.352.018.004 4.735 1.52a.71.71 0 0 1 .499.685l-.019.463c-.035.562-.13 1.383-.386 2.111-.17.484-.426.973-.823 1.308l-.085.061c-.393.255-1.113.31-1.698.233l-.259-.045c-1.22-.27-1.9-1.002-2.27-1.725l-.14-.306a4.4 4.4 0 0 1-.305-1.497v-.036l.002-.002v-.027l.162-1.735a.197.197 0 0 0-.188-.214l-.026-.001a.17.17 0 0 0-.178.169c-.015.435-.07.802-.234 1.386-.164.58-.445 1.194-.936 1.643l-.199.163c-.415.307-.937.488-1.578.486l-.33-.016c-1.719-.164-2.557-1.326-2.952-2.427l-.074-.218a6 6 0 0 1-.282-1.44.098.098 0 0 0-.13-.09L2.72 12.182a.533.533 0 1 1-.356-1.007l6.692-2.28a.3.3 0 0 0 .17-.156l.029-.077c.057-.243.177-.59.444-.854l.097-.074a.7.7 0 0 1 .259-.084c.096-.013.202-.014.301-.008m7.326 3.157a.4.4 0 0 0-.52.343c-.044.46-.117.918-.077 1.38.027.213.087.502.207.801l.1.219c.258.508.715.995 1.564 1.182l.174.03c.186.025.403.031.605.011.132-.012.237-.034.309-.057.297-.095.47-.609.56-.866.194-.554.279-1.2.316-1.693a.39.39 0 0 0-.273-.398zm-6.985-2.055c-.21-.039-.375.09-.392.302-.058.713-.034 1.342.18 2.03l.06.179c.316.885.907 1.625 2.063 1.736.635.06 1.028-.115 1.297-.361.292-.267.498-.675.634-1.158.146-.517.186-.801.198-1.14.03-.222-.094-.463-.306-.532l-.05-.016a65 65 0 0 0-1.742-.542 25 25 0 0 0-1.782-.467z"/></svg>